<svg width="70" height="70" viewBox="0 0 70 70" fill="none" xmlns="http://www.w3.org/2000/svg">
<mask id="path-1-inside-1_315_34" fill="white">
<path d="M70 35C70 54.33 54.33 70 35 70C15.67 70 0 54.33 0 35C0 15.67 15.67 0 35 0C54.33 0 70 15.67 70 35ZM4.00056 35C4.00056 52.1205 17.8795 65.9994 35 65.9994C52.1205 65.9994 65.9994 52.1205 65.9994 35C65.9994 17.8795 52.1205 4.00056 35 4.00056C17.8795 4.00056 4.00056 17.8795 4.00056 35Z"/>
</mask>
<path d="M70 35C70 54.33 54.33 70 35 70C15.67 70 0 54.33 0 35C0 15.67 15.67 0 35 0C54.33 0 70 15.67 70 35ZM4.00056 35C4.00056 52.1205 17.8795 65.9994 35 65.9994C52.1205 65.9994 65.9994 52.1205 65.9994 35C65.9994 17.8795 52.1205 4.00056 35 4.00056C17.8795 4.00056 4.00056 17.8795 4.00056 35Z" stroke="white" stroke-width="20" mask="url(#path-1-inside-1_315_34)"/>
</svg>
