<svg width="70" height="70" viewBox="0 0 70 70" fill="none" xmlns="http://www.w3.org/2000/svg">
<mask id="path-1-inside-1_315_34" fill="white">
<path d="M67.9997 35C69.1044 35 70.006 35.8963 69.9429 36.9993C69.5629 43.6417 67.2958 50.0537 63.388 55.4724C59.0894 61.4331 53.0235 65.8895 46.0503 68.2098C39.0771 70.5301 31.5505 70.5965 24.5375 68.3996C17.5245 66.2028 11.3809 61.8541 6.97768 55.9702C2.5745 50.0863 0.135147 42.9656 0.00545079 35.6177C-0.124245 28.2698 2.0623 21.0674 6.25509 15.0318C10.4479 8.99611 16.4342 4.43336 23.3653 1.99039C29.6662 -0.230452 36.4573 -0.597038 42.9372 0.911855C44.0132 1.1624 44.6189 2.28012 44.3073 3.34V3.34C43.9957 4.39987 42.8848 4.99975 41.8071 4.75715C36.1352 3.48045 30.2037 3.8219 24.6952 5.76345C18.5563 7.92719 13.2542 11.9684 9.54069 17.3142C5.82714 22.66 3.89052 29.039 4.00539 35.5471C4.12026 42.0551 6.28079 48.3619 10.1807 53.5733C14.0806 58.7847 19.5219 62.6363 25.7334 64.582C31.9448 66.5277 38.6111 66.4689 44.7872 64.4139C50.9634 62.3588 56.3359 58.4118 60.1432 53.1324C63.5596 48.3951 65.5601 42.8007 65.9349 36.999C66.0062 35.8966 66.895 35 67.9997 35V35Z"/>
</mask>
<path d="M67.9997 35C69.1044 35 70.006 35.8963 69.9429 36.9993C69.5629 43.6417 67.2958 50.0537 63.388 55.4724C59.0894 61.4331 53.0235 65.8895 46.0503 68.2098C39.0771 70.5301 31.5505 70.5965 24.5375 68.3996C17.5245 66.2028 11.3809 61.8541 6.97768 55.9702C2.5745 50.0863 0.135147 42.9656 0.00545079 35.6177C-0.124245 28.2698 2.0623 21.0674 6.25509 15.0318C10.4479 8.99611 16.4342 4.43336 23.3653 1.99039C29.6662 -0.230452 36.4573 -0.597038 42.9372 0.911855C44.0132 1.1624 44.6189 2.28012 44.3073 3.34V3.34C43.9957 4.39987 42.8848 4.99975 41.8071 4.75715C36.1352 3.48045 30.2037 3.8219 24.6952 5.76345C18.5563 7.92719 13.2542 11.9684 9.54069 17.3142C5.82714 22.66 3.89052 29.039 4.00539 35.5471C4.12026 42.0551 6.28079 48.3619 10.1807 53.5733C14.0806 58.7847 19.5219 62.6363 25.7334 64.582C31.9448 66.5277 38.6111 66.4689 44.7872 64.4139C50.9634 62.3588 56.3359 58.4118 60.1432 53.1324C63.5596 48.3951 65.5601 42.8007 65.9349 36.999C66.0062 35.8966 66.895 35 67.9997 35V35Z" stroke="white" stroke-width="20" mask="url(#path-1-inside-1_315_34)"/>
</svg>
